HIERARCHY
    ROOT Hips
    {
        OFFSET -42.200000 91.615000 -40.070000
        CHANNELS 6 Xposition Yposition Zposition Zrotation Yrotation Xrotation
        JOINT Thigh_L
        {
            OFFSET 0.103500 1.857800 10.548500
            CHANNELS 3 Zrotation Yrotation Xrotation
            JOINT Shin_L
            {
                OFFSET 43.500000 0.000000 0.000000
                CHANNELS 3 Zrotation Yrotation Xrotation
                JOINT Foot_L
                {
                    OFFSET 42.372000 0.000000 0.000000
                    CHANNELS 3 Zrotation Yrotation Xrotation
                    JOINT Toe_L
                    {
                        OFFSET 17.300000 0.000000 0.000000
                        CHANNELS 3 Zrotation Yrotation Xrotation
                        End Site
                        {
                            OFFSET 0.000000 0.000000 0.000000
                        }
                    }
                }
            }
        }
        JOINT Thigh_R
        {
            OFFSET 0.103500 1.857800 -10.548500
            CHANNELS 3 Zrotation Yrotation Xrotation
            JOINT Shin_R
            {
                OFFSET 43.500000 0.000000 0.000000
                CHANNELS 3 Zrotation Yrotation Xrotation
                JOINT Foot_R
                {
                    OFFSET 42.372000 0.000000 0.000000
                    CHANNELS 3 Zrotation Yrotation Xrotation
                    JOINT Toe_R
                    {
                        OFFSET 17.300000 0.000000 0.000000
                        CHANNELS 3 Zrotation Yrotation Xrotation
                        End Site
                        {
                            OFFSET 0.000000 0.000000 0.000000
                        }
                    }
                }
            }
        }
        JOINT Spine
        {
            OFFSET 6.900000 -2.600000 0.000000
            CHANNELS 3 Zrotation Yrotation Xrotation
            JOINT Spine1
            {
                OFFSET 12.588000 0.000000 0.000000
                CHANNELS 3 Zrotation Yrotation Xrotation
                JOINT Spine2
                {
                    OFFSET 12.343000 0.000000 0.000000
                    CHANNELS 3 Zrotation Yrotation Xrotation
                    JOINT Neck
                    {
                        OFFSET 25.833000 0.000000 0.000000
                        CHANNELS 3 Zrotation Yrotation Xrotation
                        JOINT Head
                        {
                            OFFSET 11.766600 0.000000 0.000000
                            CHANNELS 3 Zrotation Yrotation Xrotation
                            End Site
                            {
                                OFFSET 0.000000 0.000000 0.000000
                            }
                        }
                    }
                    JOINT Shoulder_L
                    {
                        OFFSET 19.746000 -1.480000 6.000000
                        CHANNELS 3 Zrotation Yrotation Xrotation
                        JOINT UpperArm_L
                        {
                            OFFSET 11.284000 0.000000 0.000000
                            CHANNELS 3 Zrotation Yrotation Xrotation
                            JOINT Forearm_L
                            {
                                OFFSET 33.000000 0.000000 0.000000
                                CHANNELS 3 Zrotation Yrotation Xrotation
                                JOINT Hand_L
                                {
                                    OFFSET 25.200000 0.000000 0.000000
                                    CHANNELS 3 Zrotation Yrotation Xrotation
                                    End Site
                                    {
                                        OFFSET 0.000000 0.000000 0.000000
                                    }
                                }
                            }
                        }
                    }
                    JOINT Shoulder_R
                    {
                        OFFSET 19.745000 -1.480000 -6.000000
                        CHANNELS 3 Zrotation Yrotation Xrotation
                        JOINT UpperArm_R
                        {
                            OFFSET 11.284000 0.000000 0.000000
                            CHANNELS 3 Zrotation Yrotation Xrotation
                            JOINT Forearm_R
                            {
                                OFFSET 33.000000 0.000000 0.000000
                                CHANNELS 3 Zrotation Yrotation Xrotation
                                JOINT Hand_R
                                {
                                    OFFSET 25.200000 0.000000 0.000000
                                    CHANNELS 3 Zrotation Yrotation Xrotation
                                    End Site
                                    {
                                        OFFSET 0.000000 0.000000 0.000000
                                    }
                                }
                            }
                        }
                    }
                }
            }
        }
    }
    MOTION
Frames: 6
Frame Time: 0.033333
291.4183044433594 79.24431610107422 8.170875549316406 85.45286560058594 -5.237015724182129 -167.3245391845703 139.9811553955078 6.956701755523682 164.26239013671875 -62.67721176147461 -7.452199935913086 -6.487105369567871 102.79280090332031 7.211085796356201 13.556681632995605 17.59330940246582 -2.400243043899536 0.9339895248413086 156.85684204101562 5.956009387969971 178.52139282226562 -119.2450942993164 -15.450404167175293 11.28070068359375 64.50205993652344 8.814191818237305 4.811002254486084 21.34904670715332 0.6241868138313293 3.309147834777832 0.4891149699687958 2.6411216259002686 0.12440338730812073 10.948710441589355 -3.5328433513641357 -3.9671757221221924 10.293665885925293 -2.1340928077697754 -5.482150554656982 -9.461700439453125 1.054169774055481 -3.5588715076446533 -5.492586612701416 8.511151313781738 -2.5059916973114014 -150.4137420654297 -79.08517456054688 -28.468900680541992 -2.082131862640381 47.08183288574219 16.42750358581543 -97.59872436523438 11.936371803283691 0.625522255897522 -8.511507034301758 -2.4158756732940674 17.176713943481445 -125.63372039794922 79.70308685302734 54.97374725341797 30.706939697265625 -65.15718841552734 -24.98807716369629 -53.42897415161133 -2.58988881111145 1.7682864665985107 -11.07175350189209 8.935972213745117 -7.867435455322266
298.4177551269531 80.13639831542969 6.350822448730469 84.93924713134766 -5.005951404571533 -167.2091522216797 145.7144775390625 7.0198750495910645 165.697021484375 -61.661720275878906 -7.212225437164307 -6.0688676834106445 104.20475769042969 4.375185966491699 11.683353424072266 17.50116729736328 -2.4533936977386475 0.9669942855834961 144.34791564941406 3.804199457168579 177.83935546875 -114.96939086914062 -15.962066650390625 9.081879615783691 63.909812927246094 11.654656410217285 3.7542903423309326 21.354204177856445 0.6462322473526001 3.388416290283203 0.5295591950416565 3.1073672771453857 -0.4925791025161743 12.539397239685059 -2.4539191722869873 -5.132655143737793 11.549617767333984 -1.173717975616455 -6.8979926109313965 -9.35731029510498 2.649231195449829 -3.5884203910827637 -5.626808166503906 7.894378185272217 -1.9652671813964844 -157.05516052246094 -79.83577728271484 -22.43761444091797 -6.572577476501465 49.47970962524414 10.25376033782959 -107.55128479003906 10.941690444946289 0.2044452279806137 -9.759109497070312 -3.134934663772583 18.5094051361084 -125.97166442871094 78.75235748291016 54.495399475097656 35.931243896484375 -64.59513854980469 -31.13457679748535 -44.047630310058594 -3.2485313415527344 1.3376481533050537 -10.465828895568848 9.091407775878906 -7.006143569946289
304.3525390625 81.82518005371094 4.209419250488281 84.78778076171875 -3.925455331802368 -167.83346557617188 152.42172241210938 6.700611591339111 167.56085205078125 -56.696529388427734 -6.644589900970459 -6.411342620849609 103.03229522705078 2.9280993938446045 9.615262985229492 17.424068450927734 -2.4987576007843018 1.0042502880096436 136.31285095214844 2.094998598098755 179.62738037109375 -100.02951049804688 -16.430253982543945 4.384479999542236 64.43370819091797 14.756367683410645 2.8641273975372314 21.35196876525879 0.6637257933616638 3.454430103302002 0.43772903084754944 3.713078260421753 -0.731550395488739 13.227481842041016 -0.9270418286323547 -5.679423809051514 12.200688362121582 0.4287034869194031 -7.845200538635254 -9.042034149169922 3.6368353366851807 -3.5906121730804443 -5.251428604125977 7.31395959854126 -1.5006552934646606 -155.19076538085938 -81.23480224609375 -24.18695640563965 -5.314994812011719 50.48672866821289 9.947709083557129 -119.6541519165039 9.928281784057617 -0.3440574109554291 -10.651679992675781 -3.217219352722168 19.728912353515625 -119.2733154296875 78.97943115234375 60.99770736694336 41.27771759033203 -62.77014923095703 -39.822265625 -42.56935501098633 -3.995068073272705 1.1449168920516968 -10.12553882598877 8.651150703430176 -6.653939247131348
10.081539154052734 81.88439178466797 0.0927450954914093 84.12506866455078 -3.9677133560180664 -178.23272705078125 143.18704223632812 9.247285842895508 171.92572021484375 -56.411766052246094 1.6603074073791504 2.7660365104675293 93.15132141113281 -0.9674614071846008 7.796947002410889 21.393428802490234 -0.05643898621201515 -0.009189633652567863 152.8342742919922 4.059529781341553 -171.02017211914062 -118.16746520996094 -4.001615524291992 6.618655681610107 83.8226547241211 -4.762921333312988 3.366124153137207 21.44696807861328 0.010777337476611137 0.06514661759138107 7.6882710456848145 -0.42593446373939514 -1.0003015995025635 4.697124481201172 -0.9946959614753723 -2.029298782348633 4.647494316101074 -1.0814083814620972 -2.094848394393921 -5.699833393096924 8.34396743774414 -6.944981098175049 -24.725093841552734 -3.969982624053955 -3.122509479522705 -163.77447509765625 -82.54402160644531 -18.278987884521484 20.5982666015625 57.62759780883789 32.8049430847168 -104.1930160522461 1.1189321279525757 2.8205511569976807 -11.812736511230469 -12.000615119934082 18.827392578125 177.98741149902344 75.98619079589844 -0.5794164538383484 19.317922592163086 -57.567745208740234 -31.62779998779297 -77.74642181396484 5.9760894775390625 -2.203667402267456 -10.836700439453125 17.82199478149414 -9.974247932434082
21.641712188720703 81.60287475585938 -0.15718500316143036 85.3758316040039 -2.073833703994751 -175.53363037109375 147.57127380371094 8.698020935058594 170.4532012939453 -58.278560638427734 1.3359668254852295 3.4622609615325928 90.15872955322266 -1.2471988201141357 7.392961025238037 21.3140926361084 -0.12865591049194336 -0.024016017094254494 147.22825622558594 3.908898115158081 -171.77688598632812 -112.12081909179688 -4.239002704620361 5.298090934753418 88.07056427001953 -6.1299285888671875 2.2944834232330322 21.438753128051758 0.026341821998357773 0.14328916370868683 8.2515230178833 0.7503840923309326 -1.3754618167877197 4.666958808898926 0.5938426852226257 -2.6988866329193115 5.142025470733643 0.07397390902042389 -2.9675352573394775 -5.753848552703857 9.080618858337402 -6.3082475662231445 -24.88096046447754 -4.945440292358398 -1.9015305042266846 -168.22817993164062 -82.56027221679688 -14.151704788208008 15.26378059387207 59.08674621582031 28.313276290893555 -103.03678894042969 0.6876510977745056 2.9852049350738525 -11.945575714111328 -12.410903930664062 19.238216400146484 -179.0578155517578 75.56292724609375 2.3078320026397705 21.40878677368164 -55.05475616455078 -32.77812576293945 -78.78480529785156 6.0262627601623535 -2.355583429336548 -10.531060218811035 18.087932586669922 -9.659602165222168
33.56999206542969 81.63818359375 0.1335141807794571 86.60388946533203 0.14468875527381897 -172.62210083007812 154.31619262695312 6.958290100097656 170.18374633789062 -61.307437896728516 1.186915397644043 3.567901611328125 88.28811645507812 -0.5404706597328186 6.598177909851074 21.232038497924805 -0.2016737163066864 -0.04508765786886215 139.05429077148438 4.512876510620117 -173.20724487304688 -99.89891052246094 -4.2680768966674805 3.8668084144592285 89.61361694335938 -7.363609313964844 1.743356704711914 21.423643112182617 0.04318131506443024 0.22138838469982147 8.281235694885254 1.7383701801300049 -1.9609026908874512 4.507450103759766 2.5378057956695557 -3.841359853744507 5.652298450469971 1.5148944854736328 -4.475706100463867 -5.783087730407715 10.184014320373535 -5.627438068389893 -25.03264808654785 -6.219327449798584 -0.3747932016849518 -173.66233825683594 -82.49177551269531 -8.931096076965332 9.850895881652832 60.793392181396484 24.340566635131836 -101.02813720703125 0.107980877161026 3.1600518226623535 -12.193906784057617 -12.80015754699707 19.936569213867188 -174.26971435546875 75.16016387939453 6.872326374053955 24.9820613861084 -51.83207702636719 -34.346473693847656 -81.01305389404297 5.978865146636963 -2.5851240158081055 -10.237665176391602 18.32996940612793 -9.312322616577148
